HIERARCHY
ROOT root
{
	OFFSET 0.000000 0.000000 0.000000
	CHANNELS 6 Xposition Yposition Zposition Zrotation Yrotation Xrotation
	JOINT lhip
	{
		OFFSET 0.058581 -0.082280 -0.017664
		CHANNELS 3 Zrotation Yrotation Xrotation
		JOINT lknee
		{
			OFFSET 0.043451 -0.386469 0.008037
			CHANNELS 3 Zrotation Yrotation Xrotation
			JOINT lankle
			{
				OFFSET -0.014790 -0.426874 -0.037428
				CHANNELS 3 Zrotation Yrotation Xrotation
				JOINT ltoe
				{
					OFFSET 0.041054 -0.060286 0.122042
					CHANNELS 3 Zrotation Yrotation Xrotation
					End Site
					{
						OFFSET 0.000000 0.000000 0.000000
					}
				}
			}
		}
	}
	JOINT rhip
	{
		OFFSET -0.060310 -0.090513 -0.013543
		CHANNELS 3 Zrotation Yrotation Xrotation
		JOINT rknee
		{
			OFFSET -0.043257 -0.383688 -0.004843
			CHANNELS 3 Zrotation Yrotation Xrotation
			JOINT rankle
			{
				OFFSET 0.019056 -0.420046 -0.034562
				CHANNELS 3 Zrotation Yrotation Xrotation
				JOINT rtoe
				{
					OFFSET -0.034840 -0.062106 0.130323
					CHANNELS 3 Zrotation Yrotation Xrotation
					End Site
					{
						OFFSET 0.000000 0.000000 0.000000
					}
				}
			}
		}
	}
	JOINT lowerback
	{
		OFFSET 0.004439 0.124404 -0.038385
		CHANNELS 3 Zrotation Yrotation Xrotation
		JOINT upperback
		{
			OFFSET 0.004488 0.137956 0.026820
			CHANNELS 3 Zrotation Yrotation Xrotation
			JOINT chest
			{
				OFFSET -0.002265 0.056032 0.002855
				CHANNELS 3 Zrotation Yrotation Xrotation
				JOINT lowerneck
				{
					OFFSET -0.013390 0.211636 -0.033468
					CHANNELS 3 Zrotation Yrotation Xrotation
					JOINT upperneck
					{
						OFFSET 0.010113 0.088937 0.050410
						CHANNELS 3 Zrotation Yrotation Xrotation
						End Site
						{
							OFFSET 0.000000 0.000000 0.000000
						}
					}
				}
				JOINT lclavicle
				{
					OFFSET 0.071702 0.114000 -0.018898
					CHANNELS 3 Zrotation Yrotation Xrotation
					JOINT lshoulder
					{
						OFFSET 0.122921 0.045205 -0.019046
						CHANNELS 3 Zrotation Yrotation Xrotation
						JOINT lelbow
						{
							OFFSET 0.255332 -0.015649 -0.022946
							CHANNELS 3 Zrotation Yrotation Xrotation
							JOINT lwrist
							{
								OFFSET 0.265709 0.012698 -0.007375
								CHANNELS 3 Zrotation Yrotation Xrotation
								End Site
								{
									OFFSET 0.000000 0.000000 0.000000
								}
							}
						}
					}
				}
				JOINT rclavicle
				{
					OFFSET -0.082954 0.112472 -0.023707
					CHANNELS 3 Zrotation Yrotation Xrotation
					JOINT rshoulder
					{
						OFFSET -0.113228 0.046853 -0.008472
						CHANNELS 3 Zrotation Yrotation Xrotation
						JOINT relbow
						{
							OFFSET -0.260127 -0.014369 -0.031269
							CHANNELS 3 Zrotation Yrotation Xrotation
							JOINT rwrist
							{
								OFFSET -0.269108 0.006794 -0.006027
								CHANNELS 3 Zrotation Yrotation Xrotation
								End Site
								{
									OFFSET 0.000000 0.000000 0.000000
								}
							}
						}
					}
				}
			}
		}
	}
}
MOTION
Frames: 11
Frame Time: 0.033333
-1.663166 0.196144 0.976872 137.504589 -5.138747 88.286127 -2.173331 -9.734956 -3.810626 -4.004928 -15.579960 3.321296 -3.996601 -0.501733 -7.934823 0.000000 -0.000000 0.000000 -8.367906 -11.239825 0.184798 -4.606175 -15.803566 21.736865 2.309317 -17.749664 -20.241178 0.000000 -0.000000 0.000000 1.767919 10.429721 3.893931 -2.364053 2.816352 5.226425 0.481589 2.128968 -0.518537 -3.908502 31.730622 -3.969273 -4.177306 23.571974 2.776449 -21.604898 -1.204119 -0.582179 -60.463722 1.909847 14.327956 -5.399617 -35.635531 27.950117 -17.803047 -5.608674 -13.658817 21.489126 6.431237 3.722955 63.249220 4.662291 18.393308 -8.765654 22.324233 6.739657 -15.406545 2.022731 7.613551 
-1.663547 0.197090 0.976765 136.749975 -5.261140 88.340520 -2.190975 -10.028982 -3.549261 -4.035389 -15.692693 2.668727 -2.519647 0.908876 -8.377318 0.000000 -0.000000 0.000000 -8.575954 -10.942319 -0.099699 -4.258833 -14.871135 21.641006 2.600856 -18.411339 -20.348987 0.000000 -0.000000 0.000000 1.696738 10.190671 3.826226 -2.227365 3.032889 5.155757 0.454728 1.544645 0.051358 -4.532728 31.781308 -4.906373 -4.902300 23.920189 3.395920 -23.155446 -0.265071 -1.034394 -58.672754 1.458241 15.395973 -6.187049 -36.298972 27.525114 -18.162981 -5.678544 -18.623789 23.650399 5.808271 2.349748 60.437501 4.336953 20.871093 -8.736503 22.154196 7.068976 -16.305345 0.508610 5.605371 
-1.664311 0.197843 0.976620 136.107193 -5.301589 88.536537 -2.238711 -10.005543 -3.655639 -3.925588 -15.547190 2.524429 -0.112184 1.567714 -8.892822 0.000000 -0.000000 0.000000 -8.717987 -10.851277 -0.432743 -4.004120 -14.178235 21.560999 2.498450 -18.724245 -20.180412 0.000000 -0.000000 0.000000 1.554432 9.989436 3.668970 -2.329218 3.107012 4.982653 0.417941 1.484899 0.238829 -4.584700 31.384551 -5.048554 -4.937068 24.204245 3.363910 -23.128251 -0.114565 -0.639444 -59.077996 0.951210 15.248442 -5.361751 -36.130052 26.090878 -18.152235 -4.833368 -20.153715 23.751525 5.558768 2.417797 59.983097 4.643129 20.708625 -8.588516 22.142352 6.352697 -16.034952 0.737985 5.927997 
-1.665035 0.199352 0.977457 135.341169 -5.109626 88.526871 -2.135753 -9.233564 -3.673902 -3.868580 -15.236655 2.564262 -0.330751 1.314425 -8.518048 0.000000 -0.000000 0.000000 -8.582454 -11.025044 -0.643043 -4.000022 -13.348730 21.443872 1.915386 -18.682107 -19.828404 0.000000 -0.000000 0.000000 2.346633 9.494548 4.279483 -2.817837 3.160065 4.613122 0.340413 1.237644 0.279288 -6.994427 29.715449 -6.225582 -4.304966 25.588218 2.614029 -24.628670 0.069964 -1.739761 -58.144430 1.680442 13.909404 -4.991644 -35.113846 24.407503 -18.291288 -3.289532 -20.325337 23.796759 5.585723 4.451320 59.496932 5.992544 18.940072 -8.856220 22.992738 5.738252 -16.216439 1.021416 7.497304 
-1.665298 0.200173 0.977835 134.880075 -5.034341 88.556792 -2.073056 -8.904351 -3.677382 -3.850930 -14.977015 2.509644 -0.507736 1.097992 -8.422449 0.000000 -0.000000 0.000000 -8.568857 -11.071108 -0.759898 -4.033531 -13.087446 21.396719 1.794471 -18.444782 -19.702094 0.000000 -0.000000 0.000000 2.525878 9.363967 4.375413 -2.988260 3.144733 4.552791 0.274598 1.226028 0.187855 -7.553458 29.217347 -6.445778 -4.100308 25.861985 2.318812 -25.100247 -0.020126 -1.999798 -58.000831 1.799503 13.505691 -4.620782 -34.274584 23.284882 -18.643512 -3.176755 -20.476326 23.836097 5.500235 5.065292 59.144675 6.183121 18.337613 -8.943231 23.731118 5.723497 -16.195792 1.085546 7.852582 
-1.665786 0.201063 0.977992 134.298228 -4.992905 88.624365 -2.028381 -8.776277 -3.632833 -3.860349 -14.751702 2.390902 -0.650830 1.226860 -8.382708 0.000000 -0.000000 0.000000 -8.636178 -10.988735 -0.854017 -3.992243 -12.843408 21.282694 1.937252 -18.215303 -19.651914 0.000000 -0.000000 0.000000 2.473486 9.299447 4.209652 -3.146127 3.039212 4.519268 0.079171 1.167296 0.079229 -7.121050 29.397000 -6.236097 -4.074672 25.788976 2.252487 -24.841496 -0.201721 -1.821721 -58.643896 1.591833 13.708056 -3.697915 -33.128542 21.751512 -18.174779 -2.995312 -22.003577 23.623114 5.273801 4.604378 59.020733 5.937818 18.777041 -8.619614 24.279671 6.074881 -16.131309 0.912149 7.511269 
-1.665926 0.202084 0.978054 133.748050 -4.932424 88.689645 -1.941951 -8.743233 -3.533916 -3.904810 -14.516399 2.292295 -0.590508 1.447341 -8.422980 0.000000 -0.000000 0.000000 -8.629357 -10.840232 -0.865774 -3.852050 -12.397135 21.067745 1.956745 -18.296765 -19.546837 0.000000 -0.000000 0.000000 2.501927 9.183690 4.053557 -3.364228 2.931592 4.570528 -0.097844 1.071970 -0.004006 -7.389263 29.196971 -6.579244 -3.953411 26.011731 1.999812 -24.810305 -0.556713 -1.711753 -58.788572 1.784680 13.750438 -3.177744 -32.546680 20.537276 -17.566640 -2.887989 -23.586218 23.408781 5.407852 4.693975 58.886514 5.816994 19.027598 -8.580160 25.225692 6.113024 -16.132166 0.649770 7.025994 
-1.665808 0.203429 0.978038 133.295575 -4.865951 88.681594 -1.885581 -8.598029 -3.428155 -3.934922 -14.245124 2.298908 -0.537122 1.490939 -8.472110 0.000000 -0.000000 0.000000 -8.633712 -10.804300 -0.836823 -3.772688 -12.018517 20.920243 1.897121 -18.251762 -19.457065 0.000000 -0.000000 0.000000 2.477591 9.060554 3.865701 -3.546029 2.800835 4.661477 -0.290210 1.118094 -0.133799 -7.542646 28.921675 -6.807944 -3.758269 26.067339 1.827928 -24.958171 -0.763068 -1.610207 -58.676802 1.860303 13.586243 -2.880776 -31.982643 19.350148 -17.142178 -2.685414 -24.548364 23.433784 5.428329 5.110898 58.659467 6.030571 18.820521 -8.605198 25.853677 6.041103 -16.104297 0.494943 6.815774 
-1.665497 0.204782 0.977825 132.870478 -4.830108 88.667491 -1.890411 -8.493845 -3.334649 -3.951799 -13.989180 2.374188 -0.494079 1.617463 -8.569565 0.000000 -0.000000 0.000000 -8.672635 -10.625934 -0.768098 -3.768035 -11.913321 20.826217 1.877584 -18.054154 -19.388772 0.000000 -0.000000 0.000000 2.312447 8.975219 3.517393 -3.720307 2.719466 4.791307 -0.575625 1.308278 -0.259707 -7.056287 28.934630 -6.571820 -3.723521 25.579860 1.561027 -24.693587 -0.828560 -1.155232 -59.109209 1.511804 13.395192 -1.983925 -31.410281 17.877474 -17.256978 -2.621452 -25.398579 23.398895 5.198935 5.234748 58.762775 6.240909 18.752463 -8.706334 26.165548 6.228379 -15.979914 0.299512 6.567906 
-1.665148 0.206253 0.977834 132.369374 -4.782724 88.634458 -1.961156 -8.372654 -3.175909 -3.946338 -13.696862 2.434845 -0.236885 2.031444 -8.660503 0.000000 -0.000000 0.000000 -8.676314 -10.400701 -0.654216 -3.697792 -11.554443 20.652508 1.766359 -18.112961 -19.267819 0.000000 -0.000000 0.000000 2.345337 8.682796 3.346860 -4.127577 2.703860 4.572718 -0.903926 1.230991 -0.194442 -7.150429 28.352087 -7.033679 -3.752582 25.467379 1.522535 -24.780660 -0.275943 -1.220850 -59.304680 1.455862 12.769078 -0.897807 -31.065089 16.526813 -17.752780 -2.097344 -26.375750 22.980649 5.023580 5.289997 59.379105 6.718678 19.059151 -8.834531 26.337654 6.611560 -15.914908 0.028404 6.510893 
-1.664542 0.207153 0.977434 131.899678 -4.782352 88.629649 -2.065853 -8.319964 -2.962577 -3.935290 -13.534456 2.391565 -0.054453 2.628672 -8.707665 0.000000 -0.000000 0.000000 -8.682792 -10.173829 -0.515851 -3.602879 -11.110808 20.451337 1.746235 -18.338097 -19.194354 0.000000 -0.000000 0.000000 2.290946 8.393086 3.071417 -4.469856 2.659716 4.486626 -1.064356 0.816624 -0.065033 -7.461566 27.886823 -7.796341 -4.013644 25.700158 1.695381 -24.926392 0.528919 -1.616404 -59.462311 1.642993 12.337649 0.076079 -31.016104 15.634739 -17.759423 -1.544582 -27.180765 22.344103 5.249586 4.322963 59.995162 6.791127 20.149785 -8.512445 26.081491 6.617773 -15.841292 -0.204594 6.070827 
